<svg width="32" height="32" viewBox="0 0 32 32" fill="none" xmlns="http://www.w3.org/2000/svg">
<path d="M2.24634 25.0709H4.35834V23.8056H7.52634V25.0709H12.1727V23.8056H29.4911V25.0709C24.6335 25.1974 19.6703 25.4505 17.0303 26.8423H2.24634V25.0709Z" fill="white"/>
<path fill-rule="evenodd" clip-rule="evenodd" d="M29.1743 23.173H4.78074C3.61914 23.173 2.24634 21.022 2.24634 19.6302C2.24634 17.2262 2.35194 14.8221 2.35194 12.5446C2.66874 9.88753 3.51354 7.4835 4.35834 5.07947C4.56954 4.57335 4.88634 4.06724 5.41434 4.06724H14.1791C15.0239 4.44683 15.8687 4.82641 16.1855 5.96516C18.7199 13.4303 23.7887 16.9731 29.4911 18.2384V22.7934C29.4911 22.9199 29.2799 23.173 29.1743 23.173Z" fill="white"/>
<path fill-rule="evenodd" clip-rule="evenodd" d="M3.93573 10.5202H15.0237C15.3405 10.5202 15.4461 9.76098 15.2349 9.3814C14.9181 8.11612 14.3901 5.58556 13.8621 5.58556H5.30853C4.78053 5.58556 4.25253 8.11612 3.72453 9.3814C3.61893 9.88751 3.72453 10.5202 3.93573 10.5202Z" fill="black"/>
<path d="M5.73137 16.8466C5.73137 17.6057 5.30897 18.1118 4.78097 18.1118C4.25297 18.1118 3.72498 17.6057 3.72498 16.8466C3.72498 16.2139 4.25297 15.7078 4.78097 15.7078C5.30897 15.7078 5.73137 16.2139 5.73137 16.8466Z" fill="black"/>
<path d="M14.1791 16.8466C14.1791 17.6057 13.7567 18.1118 13.2287 18.1118C12.7007 18.1118 12.1727 17.6057 12.1727 16.8466C12.1727 16.2139 12.7007 15.7078 13.2287 15.7078C13.7567 15.7078 14.1791 16.2139 14.1791 16.8466Z" fill="black"/>
<path fill-rule="evenodd" clip-rule="evenodd" d="M19.0369 13.3038V17.7322L17.3473 16.72C17.2417 14.9486 17.1361 13.0507 17.1361 11.1528C17.7697 11.7854 18.5089 12.7976 19.0369 13.3038Z" fill="black"/>
<path fill-rule="evenodd" clip-rule="evenodd" d="M21.5714 15.7078L21.677 19.124L19.9874 18.2383V14.316C20.7266 15.0751 21.0434 15.2017 21.5714 15.7078Z" fill="black"/>
<path fill-rule="evenodd" clip-rule="evenodd" d="M22.4161 16.3404V19.3771C22.9441 19.6301 23.4721 19.7567 24.0001 19.8832V17.0996L22.4161 16.3404Z" fill="black"/>
<path fill-rule="evenodd" clip-rule="evenodd" d="M24.6336 17.4792V20.1363C25.056 20.2628 25.4784 20.3893 25.9008 20.3893V17.8588L24.6336 17.4792Z" fill="black"/>
<path fill-rule="evenodd" clip-rule="evenodd" d="M26.5347 18.1118V20.5158C26.8515 20.6424 27.2739 20.6424 27.5907 20.6424V18.3649L26.5347 18.1118Z" fill="black"/>
<path fill-rule="evenodd" clip-rule="evenodd" d="M28.1186 18.4914V20.7689L28.9634 20.8954V18.6179L28.1186 18.4914Z" fill="black"/>
</svg>
